<svg xmlns="http://www.w3.org/2000/svg" viewBox="0 0 1200 400" preserveAspectRatio="xMidYMax slice">
  <defs>
    <linearGradient id="h1" x1="0" y1="0" x2="0" y2="1"><stop offset="0" stop-color="#f6d79a"/><stop offset="1" stop-color="#eec873"/></linearGradient>
    <linearGradient id="h2" x1="0" y1="0" x2="0" y2="1"><stop offset="0" stop-color="#ecbf63"/><stop offset="1" stop-color="#e2ab44"/></linearGradient>
    <linearGradient id="h3" x1="0" y1="0" x2="0" y2="1"><stop offset="0" stop-color="#dca83c"/><stop offset="1" stop-color="#cf952b"/></linearGradient>
    <linearGradient id="h4" x1="0" y1="0" x2="0" y2="1"><stop offset="0" stop-color="#c98a26"/><stop offset="1" stop-color="#bd7d1c"/></linearGradient>
  </defs>
  <g opacity="0.7">
    <path d="M0,150 C160,90 340,170 560,120 C760,78 980,160 1200,110 L1200,400 L0,400 Z" fill="url(#h1)" opacity="0.85"/>
    <g stroke="#bd7d1c" stroke-width="3" fill="none" opacity="0.5" stroke-linecap="round">
      <path d="M180,80 q14,-12 28,0 q14,-12 28,0"/>
      <path d="M300,110 q11,-9 22,0 q11,-9 22,0"/>
      <path d="M1010,70 q12,-10 24,0 q12,-10 24,0"/>
    </g>
    <path d="M0,220 C220,160 420,240 680,200 C900,166 1060,236 1200,205 L1200,400 L0,400 Z" fill="url(#h2)" opacity="0.92"/>
    <path d="M0,290 C260,240 480,300 760,270 C980,246 1100,296 1200,280 L1200,400 L0,400 Z" fill="url(#h3)"/>
    <path d="M0,345 C300,308 520,352 820,332 C1010,318 1120,346 1200,338 L1200,400 L0,400 Z" fill="url(#h4)"/>
    <g fill="#a86d16" opacity="0.7">
      <ellipse cx="120" cy="330" rx="16" ry="22"/><rect x="117" y="345" width="6" height="18"/>
      <ellipse cx="960" cy="318" rx="13" ry="18"/><rect x="957" y="330" width="5" height="15"/>
    </g>
  </g>
</svg>
